<svg width="141" height="38" viewBox="0 0 141 38" fill="none" xmlns="http://www.w3.org/2000/svg">
<path d="M10.3621 29.5351C8.3648 29.5351 6.59795 29.0806 5.06155 28.1716C3.52515 27.2498 2.32164 25.9886 1.45102 24.3882C0.580392 22.7878 0.14508 20.9825 0.14508 18.9724C0.14508 16.9495 0.580392 15.1506 1.45102 13.5758C2.32164 12.001 3.52515 10.7655 5.06155 9.86926C6.59795 8.97303 8.3648 8.52491 10.3621 8.52491C12.3594 8.52491 14.1263 8.97303 15.6627 9.86926C17.1991 10.7655 18.4026 12.001 19.2732 13.5758C20.1438 15.1506 20.5792 16.9495 20.5792 18.9724C20.5792 20.9825 20.1438 22.7878 19.2732 24.3882C18.4026 25.9886 17.1991 27.2498 15.6627 28.1716C14.1263 29.0806 12.3594 29.5351 10.3621 29.5351ZM10.3621 27.365C11.8985 27.365 13.2493 27.0065 14.4144 26.2895C15.5923 25.5725 16.5141 24.5803 17.1799 23.3127C17.8457 22.0452 18.1785 20.5984 18.1785 18.9724C18.1785 17.3336 17.8457 15.8932 17.1799 14.6513C16.5141 13.4094 15.5923 12.4427 14.4144 11.7513C13.2493 11.0472 11.8985 10.6951 10.3621 10.6951C8.83853 10.6951 7.48778 11.0472 6.30987 11.7513C5.13197 12.4427 4.21013 13.4094 3.54436 14.6513C2.87859 15.8932 2.5457 17.3336 2.5457 18.9724C2.5457 20.5984 2.87859 22.0452 3.54436 23.3127C4.21013 24.5803 5.13197 25.5725 6.30987 26.2895C7.48778 27.0065 8.83853 27.365 10.3621 27.365ZM23.2988 37.582V8.79378H25.6802V37.582H23.2988ZM32.7093 29.5543C31.1473 29.5543 29.7005 29.1766 28.3689 28.4213C27.0374 27.6659 25.9619 26.6416 25.1425 25.3485C24.3359 24.0553 23.9326 22.6022 23.9326 20.9889C23.9326 20.9505 23.9326 20.9185 23.9326 20.8929C23.9326 20.8673 23.9326 20.8417 23.9326 20.8161L25.6802 20.7777C25.6802 20.8033 25.6802 20.8289 25.6802 20.8545C25.6802 20.8801 25.6802 20.9057 25.6802 20.9313C25.6802 22.0836 25.9939 23.1463 26.6213 24.1193C27.2486 25.0924 28.0681 25.867 29.0795 26.4431C30.1038 27.0193 31.2113 27.3074 32.402 27.3074C34.3737 27.3074 35.9933 26.6096 37.2608 25.214C38.5412 23.8057 39.1813 21.7315 39.1813 18.9916C39.1813 16.2389 38.5412 14.1648 37.2608 12.7692C35.9933 11.3736 34.3737 10.6759 32.402 10.6759C31.2113 10.6759 30.1038 10.9639 29.0795 11.5401C28.0681 12.1162 27.2486 12.8844 26.6213 13.8447C25.9939 14.8049 25.6802 15.8676 25.6802 17.0327L23.9326 16.9751C23.9326 15.3619 24.3359 13.9151 25.1425 12.6348C25.9619 11.3544 27.0374 10.3494 28.3689 9.6196C29.7005 8.877 31.1473 8.50571 32.7093 8.50571C34.3609 8.50571 35.8589 8.91541 37.2032 9.73483C38.5476 10.5414 39.6166 11.7257 40.4104 13.2877C41.2171 14.8497 41.6204 16.751 41.6204 18.9916C41.6204 21.2578 41.2235 23.1783 40.4297 24.7531C39.6486 26.3279 38.5796 27.525 37.2224 28.3444C35.8781 29.151 34.3737 29.5543 32.7093 29.5543ZM44.7913 19.9903V17.8585H61.3076L60.8467 18.5115C60.8467 18.4347 60.8467 18.3707 60.8467 18.3194C60.8467 18.2554 60.8467 18.1914 60.8467 18.1274C60.8467 16.8087 60.565 15.5795 60.0017 14.44C59.4383 13.3005 58.6189 12.3851 57.5434 11.6937C56.4808 11.0024 55.1812 10.6567 53.6448 10.6567C52.0828 10.6567 50.7065 11.0152 49.5158 11.7321C48.3251 12.4363 47.3968 13.4158 46.731 14.6705C46.0653 15.9124 45.7324 17.3592 45.7324 19.0108C45.7324 20.6753 46.0589 22.1412 46.7118 23.4088C47.3776 24.6635 48.3058 25.6429 49.4966 26.3471C50.6873 27.0385 52.0764 27.3842 53.664 27.3842C54.8291 27.3842 55.8406 27.2434 56.6984 26.9617C57.569 26.6672 58.286 26.2831 58.8494 25.8094C59.4255 25.3357 59.8608 24.8363 60.1553 24.3114C60.4626 23.7737 60.6418 23.2679 60.6931 22.7942H63.0553C63.004 23.5496 62.7608 24.3242 62.3255 25.118C61.903 25.899 61.2948 26.6288 60.501 27.3074C59.72 27.9859 58.7469 28.5365 57.5818 28.959C56.4295 29.3687 55.098 29.5736 53.5872 29.5736C51.6155 29.5736 49.8615 29.1254 48.3251 28.2292C46.8015 27.333 45.5979 26.0975 44.7145 24.5226C43.8439 22.935 43.4086 21.1106 43.4086 19.0492C43.4086 16.9751 43.8503 15.1506 44.7337 13.5758C45.6172 11.9882 46.8271 10.7463 48.3635 9.85005C49.8999 8.95382 51.6475 8.50571 53.6064 8.50571C55.6037 8.50571 57.3322 8.96023 58.7918 9.86926C60.2513 10.7783 61.378 12.0138 62.1718 13.5758C62.9656 15.125 63.3625 16.8663 63.3625 18.7996C63.3625 18.966 63.3561 19.1773 63.3433 19.4333C63.3433 19.6894 63.3369 19.875 63.3241 19.9903H44.7913ZM80.7473 29.1895V19.0492C80.7473 18.4219 80.7473 17.9225 80.7473 17.5512C80.7473 17.1799 80.7473 16.8151 80.7473 16.4566C80.7473 15.3171 80.5424 14.3248 80.1327 13.4798C79.7358 12.622 79.1213 11.9562 78.2891 11.4825C77.4568 10.996 76.3878 10.7527 75.0818 10.7527C73.9295 10.7527 72.8477 11.0408 71.8362 11.6169C70.8247 12.1803 70.0053 12.9485 69.378 13.9215C68.7634 14.8946 68.4561 15.9892 68.4561 17.2056L67.0157 16.6678C67.0157 15.1186 67.4126 13.7295 68.2065 12.5003C69.0131 11.2712 70.0629 10.2982 71.3561 9.58119C72.662 8.8642 74.0448 8.50571 75.5043 8.50571C77.0535 8.50571 78.3979 8.80018 79.5374 9.38914C80.6769 9.96529 81.5539 10.8039 82.1685 11.905C82.7958 12.9933 83.1095 14.3184 83.1095 15.8804C83.1095 16.4182 83.1095 16.9943 83.1095 17.6089C83.1095 18.2234 83.1095 18.7804 83.1095 19.2797V29.1895H80.7473ZM66.0747 29.1895V8.79378H68.4561V29.1895H66.0747Z" fill="#222222"/>
<path fill-rule="evenodd" clip-rule="evenodd" d="M131.236 22.9866C131.476 24.4402 133.373 25.2197 134.626 23.7049C135.566 22.5686 137.25 22.4095 138.386 23.3495C139.522 24.2895 139.681 25.9727 138.741 27.109C134.341 32.4277 126.177 29.5681 125.9 22.8608C125.889 22.7657 125.884 22.6718 125.884 22.5796L125.896 8.69992C125.896 7.31806 127.091 6.19784 128.566 6.19784C130.041 6.19784 131.236 7.31806 131.236 8.69993L131.236 22.9866Z" fill="url(#paint0_linear_338_16)"/>
<path fill-rule="evenodd" clip-rule="evenodd" d="M101.34 8.20436C102.617 8.94173 103.055 10.5748 102.317 11.852L92.9028 28.1583C92.1654 29.4354 90.5323 29.873 89.2552 29.1356C87.978 28.3983 87.5404 26.7652 88.2778 25.488L97.6922 9.18174C98.4296 7.90458 100.063 7.46699 101.34 8.20436Z" fill="url(#paint1_linear_338_16)"/>
<path fill-rule="evenodd" clip-rule="evenodd" d="M115.787 29.6328C114.312 29.6328 113.117 28.4373 113.117 26.9625L113.117 12.7473C113.117 11.2726 114.312 10.0771 115.787 10.0771C117.262 10.0771 118.457 11.2726 118.457 12.7473L118.457 26.9625C118.457 28.4373 117.262 29.6328 115.787 29.6328Z" fill="url(#paint2_linear_338_16)"/>
<path fill-rule="evenodd" clip-rule="evenodd" d="M118.027 18.9996L117.045 19.0197L113.114 18.9933C113.15 17.9903 113.751 16.124 114.206 15.2506C114.682 14.3378 115.359 13.3982 116.215 12.5919C117.937 10.9704 120.671 9.68543 123.85 10.8773C125.116 11.3518 125.757 12.7627 125.282 14.0285C124.808 15.2943 123.397 15.9357 122.131 15.4611C121.239 15.1267 120.411 15.3649 119.571 16.156C119.146 16.5561 118.793 16.8966 118.547 17.5135C118.428 18.0844 118.454 18.993 118.454 18.993L118.027 18.9996Z" fill="url(#paint3_linear_338_16)"/>
<path fill-rule="evenodd" clip-rule="evenodd" d="M125.884 13.3106L125.884 11.0492L134.671 11.0492C135.671 11.0492 137.012 12.0181 137.012 13.37C137.131 14.6669 136.069 15.9447 134.671 15.9447H125.896L125.884 13.3106Z" fill="url(#paint4_linear_338_16)"/>
<g style="mix-blend-mode:overlay" opacity="0.2">
<path d="M125.896 15.967H131.216L131.216 18.2819H125.896V15.967Z" fill="url(#paint5_linear_338_16)"/>
</g>
<path fill-rule="evenodd" clip-rule="evenodd" d="M97.5304 9.51994C97.7453 8.9848 98.1344 8.51506 98.6726 8.20435C99.9497 7.46698 101.583 7.90457 102.32 9.18173L111.735 25.488C112.472 26.7652 112.034 28.3983 110.757 29.1356C109.48 29.873 107.847 29.4354 107.11 28.1583L99.9728 15.7969L100.012 15.8966C98.5955 13.0831 96.4093 12.7832 95.4932 12.985L97.5194 9.49181L97.5304 9.51994Z" fill="url(#paint6_linear_338_16)"/>
<defs>
<linearGradient id="paint0_linear_338_16" x1="125.884" y1="6.19784" x2="144.248" y2="10.9462" gradientUnits="userSpaceOnUse">
<stop stop-color="#9D0AFC"/>
<stop offset="1" stop-color="#0359FF"/>
</linearGradient>
<linearGradient id="paint1_linear_338_16" x1="99.3167" y1="10.9325" x2="103.637" y2="16.1238" gradientUnits="userSpaceOnUse">
<stop stop-color="#00DFBA"/>
<stop offset="1" stop-color="#048AFE"/>
</linearGradient>
<linearGradient id="paint2_linear_338_16" x1="115.866" y1="10.7913" x2="115.866" y2="31.3057" gradientUnits="userSpaceOnUse">
<stop stop-color="#5900EB"/>
<stop offset="1" stop-color="#E367EE"/>
</linearGradient>
<linearGradient id="paint3_linear_338_16" x1="115.441" y1="19.0451" x2="126.321" y2="11.7546" gradientUnits="userSpaceOnUse">
<stop stop-color="#9129EC"/>
<stop offset="1" stop-color="#9F03FF"/>
</linearGradient>
<linearGradient id="paint4_linear_338_16" x1="131.725" y1="12.3098" x2="137.929" y2="18.8006" gradientUnits="userSpaceOnUse">
<stop stop-color="#930FFC"/>
<stop offset="0.865143" stop-color="#004BFB"/>
</linearGradient>
<linearGradient id="paint5_linear_338_16" x1="128.556" y1="16.0095" x2="128.556" y2="18.0191" gradientUnits="userSpaceOnUse">
<stop/>
<stop offset="1" stop-opacity="0"/>
</linearGradient>
<linearGradient id="paint6_linear_338_16" x1="94.8858" y1="8.04495" x2="120.919" y2="14.561" gradientUnits="userSpaceOnUse">
<stop stop-color="#0056FE"/>
<stop offset="0.815625" stop-color="#D159ED"/>
</linearGradient>
</defs>
</svg>
