<svg width="12" height="16" viewBox="0 0 12 16" fill="none" xmlns="http://www.w3.org/2000/svg">
<path d="M10.6667 6.52246V7.85579C10.6667 9.09347 10.175 10.2805 9.29984 11.1556C8.42467 12.0308 7.23769 12.5225 6.00001 12.5225M6.00001 12.5225C4.76233 12.5225 3.57535 12.0308 2.70018 11.1556C1.82501 10.2805 1.33334 9.09347 1.33334 7.85579V6.52246M6.00001 12.5225V15.1891M3.33334 15.1891H8.66668M6.00001 0.522461C5.46958 0.522461 4.96087 0.733175 4.5858 1.10825C4.21072 1.48332 4.00001 1.99203 4.00001 2.52246V7.85579C4.00001 8.38623 4.21072 8.89493 4.5858 9.27001C4.96087 9.64508 5.46958 9.85579 6.00001 9.85579C6.53044 9.85579 7.03915 9.64508 7.41422 9.27001C7.7893 8.89493 8.00001 8.38623 8.00001 7.85579V2.52246C8.00001 1.99203 7.7893 1.48332 7.41422 1.10825C7.03915 0.733175 6.53044 0.522461 6.00001 0.522461Z" stroke="#222222" stroke-linecap="round" stroke-linejoin="round"/>
</svg>
